# xmcd
#
# Track frame offsets: 
#        150
#        13682
#        25012
#        36755
#        49985
#        63357
#        76207
#        88767
#        102504
#        116932
#        128797
#        141662
#        154470
#        167880
#        182202
#        194572
#        208037
#        220452
#
# Disc length: 3120 seconds
#
# Revision: 1
# Processed by: cddbd v1.5.2PL0 Copyright (c) Steve Scherf et al.
# Submitted via: ExactAudioCopy v0.99pb3
#
DISCID=160c2e12
DTITLE=Lightnin' Hopkins - Ground Hog Blues - "Sittin In With" Session
DTITLE=s 1950-52 - CD2
DYEAR=2004
DGENRE=Blues
TTITLE0=One Kind Favor (See That My Grave Is Kept Clean)
TTITLE1=I Wonder Why
TTITLE2=Tap Dance Boogie
TTITLE3=Down To The River
TTITLE4=New Short Haired Woman
TTITLE5=Broken Hearted Blues
TTITLE6=New York Boogie
TTITLE7=Long Way From Texas
TTITLE8=Mad As I Can Be
TTITLE9=I'm Beggin' You
TTITLE10=Why Did You Get Mad At Me?
TTITLE11=Home In The Woods
TTITLE12=Praying Ground Blues
TTITLE13=Back Home Boogie
TTITLE14=Studio Chatter/My Heart To Weep
TTITLE15=Everybody's Down On Me
TTITLE16=New Worried Life Blues
TTITLE17=I'll Never Forget The Day
EXTD=YEAR: 2004
EXTT0=
EXTT1=
EXTT2=
EXTT3=
EXTT4=
EXTT5=
EXTT6=
EXTT7=
EXTT8=
EXTT9=
EXTT10=
EXTT11=
EXTT12=
EXTT13=
EXTT14=
EXTT15=
EXTT16=
EXTT17=
PLAYORDER=
